<svg width="180" height="54" viewBox="0 0 180 54" fill="none" xmlns="http://www.w3.org/2000/svg">
<g filter="url(#filter0_d_7_149)">
<path d="M14 36C14 21.6406 25.6406 10 40 10H166C166 24.3594 154.359 36 140 36H14Z" fill="url(#paint0_linear_7_149)" shape-rendering="crispEdges"/>
<path d="M53.8849 28V17.8182H57.9616C58.7107 17.8182 59.3355 17.9292 59.8359 18.1513C60.3364 18.3733 60.7126 18.6816 60.9645 19.076C61.2164 19.4671 61.3423 19.9179 61.3423 20.4283C61.3423 20.826 61.2628 21.1757 61.1037 21.4773C60.9446 21.7756 60.7259 22.0208 60.4474 22.2131C60.1723 22.402 59.8575 22.5362 59.5028 22.6158V22.7152C59.8906 22.7318 60.2536 22.8411 60.5916 23.0433C60.933 23.2455 61.2098 23.5289 61.4219 23.8935C61.634 24.2547 61.7401 24.6856 61.7401 25.1861C61.7401 25.7263 61.6058 26.2086 61.3374 26.6328C61.0722 27.0537 60.6795 27.3868 60.1591 27.6321C59.6387 27.8774 58.9974 28 58.2351 28H53.8849ZM56.0376 26.2401H57.7926C58.3925 26.2401 58.83 26.1257 59.1051 25.897C59.3802 25.665 59.5178 25.3568 59.5178 24.9723C59.5178 24.6906 59.4498 24.442 59.3139 24.2266C59.178 24.0111 58.9841 23.8421 58.7322 23.7195C58.4837 23.5968 58.187 23.5355 57.8423 23.5355H56.0376V26.2401ZM56.0376 22.0788H57.6335C57.9285 22.0788 58.1903 22.0275 58.419 21.9247C58.651 21.8187 58.8333 21.6695 58.9659 21.4773C59.1018 21.285 59.1697 21.0547 59.1697 20.7862C59.1697 20.4183 59.0388 20.1217 58.777 19.8963C58.5185 19.6709 58.1506 19.5582 57.6733 19.5582H56.0376V22.0788ZM66.5811 28.1491C65.7956 28.1491 65.1195 27.9901 64.5527 27.6719C63.9893 27.3504 63.5551 26.8963 63.2502 26.3097C62.9453 25.7197 62.7928 25.022 62.7928 24.2166C62.7928 23.4311 62.9453 22.7417 63.2502 22.1484C63.5551 21.5552 63.9843 21.0928 64.5378 20.7614C65.0946 20.4299 65.7476 20.2642 66.4966 20.2642C67.0004 20.2642 67.4694 20.3454 67.9036 20.5078C68.3411 20.6669 68.7222 20.9072 69.0471 21.2287C69.3752 21.5502 69.6304 21.9545 69.8127 22.4418C69.995 22.9257 70.0861 23.4924 70.0861 24.142V24.7237H63.638V23.4112H68.0925C68.0925 23.1063 68.0262 22.8362 67.8936 22.6009C67.7611 22.3655 67.5771 22.1816 67.3418 22.049C67.1098 21.9131 66.8397 21.8452 66.5314 21.8452C66.2099 21.8452 65.9249 21.9197 65.6763 22.0689C65.431 22.2147 65.2388 22.4119 65.0996 22.6605C64.9604 22.9058 64.8891 23.1792 64.8858 23.4808V24.7287C64.8858 25.1065 64.9554 25.433 65.0946 25.7081C65.2372 25.9832 65.4377 26.1953 65.6962 26.3445C65.9547 26.4936 66.2613 26.5682 66.6159 26.5682C66.8513 26.5682 67.0667 26.535 67.2623 26.4688C67.4578 26.4025 67.6252 26.303 67.7644 26.1705C67.9036 26.0379 68.0096 25.8755 68.0826 25.6832L70.0414 25.8125C69.9419 26.2831 69.7381 26.6941 69.4299 27.0455C69.1249 27.3935 68.7305 27.6652 68.2466 27.8608C67.766 28.053 67.2109 28.1491 66.5811 28.1491ZM77.8219 22.5412L75.883 22.6605C75.8498 22.4948 75.7786 22.3456 75.6692 22.2131C75.5598 22.0772 75.4157 21.9695 75.2367 21.8899C75.061 21.8071 74.8506 21.7656 74.6053 21.7656C74.2772 21.7656 74.0004 21.8352 73.775 21.9744C73.5497 22.1103 73.437 22.2926 73.437 22.5213C73.437 22.7036 73.5099 22.8577 73.6557 22.9837C73.8016 23.1096 74.0518 23.2107 74.4064 23.2869L75.7885 23.5653C76.531 23.7178 77.0845 23.9631 77.449 24.3011C77.8136 24.6392 77.9959 25.0833 77.9959 25.6335C77.9959 26.134 77.8484 26.5732 77.5534 26.951C77.2618 27.3288 76.8607 27.6238 76.3503 27.8359C75.8432 28.0447 75.2582 28.1491 74.5953 28.1491C73.5845 28.1491 72.7791 27.9387 72.1792 27.5178C71.5826 27.0935 71.2329 26.5168 71.1301 25.7876L73.2132 25.6783C73.2762 25.9865 73.4287 26.2218 73.6706 26.3842C73.9126 26.5433 74.2225 26.6229 74.6003 26.6229C74.9715 26.6229 75.2698 26.5516 75.4952 26.4091C75.7239 26.2633 75.8399 26.076 75.8432 25.8473C75.8399 25.6551 75.7587 25.4976 75.5996 25.375C75.4405 25.2491 75.1953 25.1529 74.8638 25.0866L73.5414 24.8232C72.7956 24.674 72.2405 24.4155 71.8759 24.0476C71.5146 23.6797 71.334 23.2107 71.334 22.6406C71.334 22.1501 71.4666 21.7275 71.7317 21.3729C72.0002 21.0182 72.3764 20.7448 72.8603 20.5526C73.3475 20.3603 73.9176 20.2642 74.5705 20.2642C75.535 20.2642 76.294 20.468 76.8475 20.8757C77.4043 21.2834 77.7291 21.8385 77.8219 22.5412ZM83.3913 20.3636V21.9545H78.7926V20.3636H83.3913ZM79.8366 18.5341H81.9545V25.6534C81.9545 25.849 81.9844 26.0014 82.044 26.1108C82.1037 26.2169 82.1866 26.2914 82.2926 26.3345C82.402 26.3776 82.5279 26.3991 82.6705 26.3991C82.7699 26.3991 82.8693 26.3909 82.9688 26.3743C83.0682 26.3544 83.1444 26.3395 83.1974 26.3295L83.5305 27.9055C83.4245 27.9387 83.2753 27.9768 83.0831 28.0199C82.8909 28.0663 82.6572 28.0945 82.3821 28.1044C81.8717 28.1243 81.4242 28.0563 81.0398 27.9006C80.6586 27.7448 80.362 27.5028 80.1499 27.1747C79.9377 26.8466 79.8333 26.4323 79.8366 25.9318V18.5341ZM89.8904 17.8182L92.3514 25.554H92.4458L94.9118 17.8182H97.2981L93.7882 28H91.014L87.4991 17.8182H89.8904ZM99.8137 28.1442C99.3265 28.1442 98.8923 28.0597 98.5112 27.8906C98.13 27.7183 97.8284 27.4647 97.6064 27.13C97.3876 26.7919 97.2782 26.371 97.2782 25.8672C97.2782 25.4429 97.3561 25.0866 97.5119 24.7983C97.6677 24.5099 97.8798 24.2779 98.1483 24.1023C98.4167 23.9266 98.7217 23.794 99.063 23.7045C99.4077 23.6151 99.769 23.5521 100.147 23.5156C100.591 23.4692 100.949 23.4261 101.221 23.3864C101.492 23.3433 101.69 23.2803 101.812 23.1974C101.935 23.1146 101.996 22.992 101.996 22.8295V22.7997C101.996 22.4848 101.897 22.2412 101.698 22.0689C101.502 21.8965 101.224 21.8104 100.863 21.8104C100.482 21.8104 100.178 21.8949 99.9529 22.0639C99.7276 22.2296 99.5784 22.4384 99.5055 22.6903L97.5467 22.5312C97.6461 22.0672 97.8417 21.6662 98.1333 21.3281C98.425 20.9867 98.8012 20.7249 99.2619 20.5426C99.7259 20.357 100.263 20.2642 100.873 20.2642C101.297 20.2642 101.703 20.3139 102.091 20.4134C102.482 20.5128 102.828 20.6669 103.13 20.8757C103.435 21.0845 103.675 21.353 103.851 21.6811C104.026 22.0059 104.114 22.3954 104.114 22.8494V28H102.106V26.9411H102.046C101.923 27.1797 101.759 27.3902 101.554 27.5724C101.348 27.7514 101.101 27.8923 100.813 27.995C100.525 28.0945 100.192 28.1442 99.8137 28.1442ZM100.42 26.6825C100.732 26.6825 101.007 26.6212 101.246 26.4986C101.484 26.3726 101.671 26.2036 101.807 25.9915C101.943 25.7794 102.011 25.5391 102.011 25.2706V24.4602C101.945 24.5033 101.854 24.5431 101.738 24.5795C101.625 24.6127 101.497 24.6442 101.355 24.674C101.212 24.7005 101.07 24.7254 100.927 24.7486C100.785 24.7685 100.656 24.7867 100.54 24.8033C100.291 24.8397 100.074 24.8977 99.8883 24.9773C99.7027 25.0568 99.5585 25.1645 99.4558 25.3004C99.353 25.433 99.3017 25.5987 99.3017 25.7976C99.3017 26.0859 99.4061 26.3063 99.6149 26.4588C99.827 26.608 100.095 26.6825 100.42 26.6825ZM107.875 17.8182V28H105.757V17.8182H107.875ZM114.469 24.7486V20.3636H116.587V28H114.553V26.6129H114.474C114.301 27.0604 114.015 27.42 113.614 27.6918C113.216 27.9635 112.73 28.0994 112.157 28.0994C111.647 28.0994 111.197 27.9834 110.81 27.7514C110.422 27.5194 110.119 27.1896 109.9 26.7621C109.684 26.3345 109.575 25.8224 109.572 25.2259V20.3636H111.69V24.848C111.693 25.2988 111.814 25.6551 112.053 25.9169C112.291 26.1787 112.611 26.3097 113.012 26.3097C113.267 26.3097 113.506 26.2517 113.728 26.1357C113.95 26.0163 114.129 25.8407 114.265 25.6087C114.404 25.3767 114.472 25.09 114.469 24.7486ZM121.761 28.1491C120.975 28.1491 120.299 27.9901 119.732 27.6719C119.169 27.3504 118.735 26.8963 118.43 26.3097C118.125 25.7197 117.972 25.022 117.972 24.2166C117.972 23.4311 118.125 22.7417 118.43 22.1484C118.735 21.5552 119.164 21.0928 119.718 20.7614C120.274 20.4299 120.927 20.2642 121.676 20.2642C122.18 20.2642 122.649 20.3454 123.083 20.5078C123.521 20.6669 123.902 20.9072 124.227 21.2287C124.555 21.5502 124.81 21.9545 124.992 22.4418C125.175 22.9257 125.266 23.4924 125.266 24.142V24.7237H118.818V23.4112H123.272C123.272 23.1063 123.206 22.8362 123.073 22.6009C122.941 22.3655 122.757 22.1816 122.521 22.049C122.289 21.9131 122.019 21.8452 121.711 21.8452C121.39 21.8452 121.105 21.9197 120.856 22.0689C120.611 22.2147 120.419 22.4119 120.279 22.6605C120.14 22.9058 120.069 23.1792 120.066 23.4808V24.7287C120.066 25.1065 120.135 25.433 120.274 25.7081C120.417 25.9832 120.617 26.1953 120.876 26.3445C121.134 26.4936 121.441 26.5682 121.796 26.5682C122.031 26.5682 122.246 26.535 122.442 26.4688C122.637 26.4025 122.805 26.303 122.944 26.1705C123.083 26.0379 123.189 25.8755 123.262 25.6832L125.221 25.8125C125.122 26.2831 124.918 26.6941 124.61 27.0455C124.305 27.3935 123.91 27.6652 123.426 27.8608C122.946 28.053 122.391 28.1491 121.761 28.1491Z" fill="#333333"/>
</g>
<defs>
<filter id="filter0_d_7_149" x="0" y="0" width="180" height="54" filterUnits="userSpaceOnUse" color-interpolation-filters="sRGB">
<feFlood flood-opacity="0" result="BackgroundImageFix"/>
<feColorMatrix in="SourceAlpha" type="matrix" values="0 0 0 0 0 0 0 0 0 0 0 0 0 0 0 0 0 0 127 0" result="hardAlpha"/>
<feOffset dy="4"/>
<feGaussianBlur stdDeviation="7"/>
<feComposite in2="hardAlpha" operator="out"/>
<feColorMatrix type="matrix" values="0 0 0 0 0.633333 0 0 0 0 0.925794 0 0 0 0 1 0 0 0 0.6 0"/>
<feBlend mode="normal" in2="BackgroundImageFix" result="effect1_dropShadow_7_149"/>
<feBlend mode="normal" in="SourceGraphic" in2="effect1_dropShadow_7_149" result="shape"/>
</filter>
<linearGradient id="paint0_linear_7_149" x1="68" y1="32.5" x2="205" y2="5.5" gradientUnits="userSpaceOnUse">
<stop stop-color="#97DCF0"/>
<stop offset="0.0001" stop-color="#9BDEEF"/>
<stop offset="0.567724" stop-color="#B9F2E9"/>
</linearGradient>
</defs>
</svg>
